<?xml version="1.0" standalone="no"?>
<!DOCTYPE svg PUBLIC "-//W3C//DTD SVG 20010904//EN"
 "http://www.w3.org/TR/2001/REC-SVG-20010904/DTD/svg10.dtd">
<svg version="1.0" xmlns="http://www.w3.org/2000/svg"
 width="80.000000pt" height="80.000000pt" viewBox="0 0 80.000000 80.000000"
 preserveAspectRatio="xMidYMid meet">
<metadata>
Created by potrace 1.11, written by Peter Selinger 2001-2013
</metadata>
<g transform="translate(0.000000,80.000000) scale(0.100000,-0.100000)"
fill="#000000" stroke="none">
<path d="M100 743 c-45 -40 -85 -91 -77 -99 4 -4 137 125 137 133 0 12 -26 -3
-60 -34z"/>
<path d="M290 762 c-81 -27 -99 -39 -161 -102 -89 -90 -124 -208 -99 -333 23
-120 95 -212 207 -267 187 -92 413 -12 506 180 28 58 31 74 31 155 0 114 -25
183 -96 260 -98 107 -256 151 -388 107z"/>
<path d="M740 127 c-19 -25 -50 -55 -67 -67 -33 -22 -43 -40 -23 -40 13 0 86
66 111 102 35 48 15 53 -21 5z"/>
</g>
</svg>
