<svg xmlns="http://www.w3.org/2000/svg" xmlns:xlink="http://www.w3.org/1999/xlink" width="36" zoomAndPan="magnify" viewBox="0 0 36 36.000001" height="36.000001" preserveAspectRatio="xMidYMid meet" version="1.0"><defs><clipPath id="id1"><path d="M 4.558594 0 L 31.558594 0 L 31.558594 35 L 4.558594 35 Z M 4.558594 0 " clip-rule="nonzero"/></clipPath><clipPath id="id2"><path d="M 10.59375 6.421875 L 25.917969 6.421875 L 25.917969 21.746094 L 10.59375 21.746094 Z M 10.59375 6.421875 " clip-rule="nonzero"/></clipPath></defs><g clip-path="url(#id1)"><path fill="rgb(89.408875%, 32.159424%, 34.509277%)" d="M 18.058594 0.03125 C 10.609375 0.03125 4.558594 6.078125 4.558594 13.527344 C 4.558594 17.4375 6.304688 21.351562 8.542969 24.746094 C 11.863281 29.789062 16.257812 33.683594 17.476562 34.714844 C 17.476562 34.714844 17.476562 34.71875 17.480469 34.71875 C 17.816406 34.996094 18.300781 34.996094 18.636719 34.71875 C 18.636719 34.71875 18.640625 34.714844 18.640625 34.714844 C 19.855469 33.683594 24.253906 29.789062 27.574219 24.746094 C 29.8125 21.351562 31.558594 17.4375 31.558594 13.527344 C 31.558594 6.078125 25.507812 0.03125 18.058594 0.03125 Z M 18.058594 6.875 C 22.007812 6.875 25.210938 10.082031 25.210938 14.027344 C 25.210938 17.976562 22.007812 21.183594 18.058594 21.183594 C 14.109375 21.183594 10.90625 17.976562 10.90625 14.027344 C 10.90625 10.082031 14.109375 6.875 18.058594 6.875 Z M 18.058594 6.875 " fill-opacity="1" fill-rule="nonzero"/></g><g clip-path="url(#id2)"><path fill="rgb(100%, 100%, 100%)" d="M 25.917969 14.082031 C 25.917969 14.585938 25.867188 15.085938 25.769531 15.578125 C 25.671875 16.070312 25.527344 16.550781 25.335938 17.015625 C 25.140625 17.480469 24.90625 17.921875 24.625 18.339844 C 24.347656 18.757812 24.027344 19.144531 23.671875 19.5 C 23.316406 19.859375 22.929688 20.175781 22.511719 20.453125 C 22.09375 20.734375 21.652344 20.96875 21.1875 21.164062 C 20.722656 21.355469 20.242188 21.5 19.75 21.597656 C 19.257812 21.695312 18.757812 21.746094 18.253906 21.746094 C 17.753906 21.746094 17.253906 21.695312 16.761719 21.597656 C 16.265625 21.5 15.789062 21.355469 15.324219 21.164062 C 14.859375 20.96875 14.417969 20.734375 14 20.453125 C 13.582031 20.175781 13.191406 19.859375 12.835938 19.5 C 12.480469 19.144531 12.164062 18.757812 11.882812 18.339844 C 11.605469 17.921875 11.367188 17.480469 11.175781 17.015625 C 10.984375 16.550781 10.839844 16.070312 10.742188 15.578125 C 10.640625 15.085938 10.59375 14.585938 10.59375 14.082031 C 10.59375 13.582031 10.640625 13.082031 10.742188 12.589844 C 10.839844 12.09375 10.984375 11.617188 11.175781 11.152344 C 11.367188 10.6875 11.605469 10.246094 11.882812 9.828125 C 12.164062 9.410156 12.480469 9.023438 12.835938 8.664062 C 13.191406 8.308594 13.582031 7.992188 14 7.714844 C 14.417969 7.433594 14.859375 7.199219 15.324219 7.003906 C 15.789062 6.8125 16.265625 6.667969 16.761719 6.570312 C 17.253906 6.46875 17.753906 6.421875 18.253906 6.421875 C 18.757812 6.421875 19.257812 6.46875 19.75 6.570312 C 20.242188 6.667969 20.722656 6.8125 21.1875 7.003906 C 21.652344 7.199219 22.09375 7.433594 22.511719 7.714844 C 22.929688 7.992188 23.316406 8.308594 23.671875 8.664062 C 24.027344 9.023438 24.347656 9.410156 24.625 9.828125 C 24.90625 10.246094 25.140625 10.6875 25.335938 11.152344 C 25.527344 11.617188 25.671875 12.09375 25.769531 12.589844 C 25.867188 13.082031 25.917969 13.582031 25.917969 14.082031 Z M 25.917969 14.082031 " fill-opacity="1" fill-rule="nonzero"/></g></svg>