<svg xmlns="http://www.w3.org/2000/svg" width="375" viewBox="0 0 375 375" height="375" version="1.0"><defs><clipPath id="a"><path d="M 54.035156 51.136719 L 321.035156 51.136719 L 321.035156 324.136719 L 54.035156 324.136719 Z M 54.035156 51.136719"/></clipPath></defs><path fill="#FFF" d="M-37.5 -37.5H412.5V412.5H-37.5z"/><path fill="#FFF" d="M-37.5 -37.5H412.5V412.5H-37.5z"/><path fill="#FFF" d="M-37.5 -37.5H412.5V412.5H-37.5z"/><g clip-path="url(#a)"><path fill="#4A5461" d="M 320.660156 196.078125 C 320.917969 196.636719 321.0625 197.257812 321.0625 197.910156 C 321.0625 198.574219 320.914062 199.199219 320.652344 199.761719 C 319.570312 253.210938 277.171875 296.195312 225.027344 296.195312 C 222.238281 296.195312 219.476562 296.074219 216.746094 295.832031 C 216.699219 311.472656 204.378906 324.136719 189.183594 324.136719 L 81.996094 324.136719 C 66.777344 324.136719 54.4375 311.425781 54.4375 295.742188 L 54.4375 79.527344 C 54.4375 63.847656 66.777344 51.136719 81.996094 51.136719 L 189.183594 51.136719 C 204.40625 51.136719 216.746094 63.847656 216.746094 79.527344 L 216.746094 99.5 C 219.476562 99.257812 222.238281 99.136719 225.027344 99.136719 C 277.335938 99.136719 319.839844 142.394531 320.660156 196.078125 Z M 229.28125 285.804688 C 242.105469 285.253906 254.210938 281.839844 265.011719 276.167969 L 259.367188 266.386719 C 258.160156 264.292969 258.875 261.617188 260.96875 260.410156 C 263.058594 259.203125 265.730469 259.921875 266.9375 262.011719 L 272.539062 271.71875 C 282.828125 264.90625 291.628906 255.917969 298.335938 245.386719 L 288.964844 239.96875 C 286.871094 238.761719 286.15625 236.085938 287.363281 233.996094 C 288.570312 231.902344 291.242188 231.1875 293.332031 232.394531 L 302.671875 237.789062 C 308.128906 227.050781 311.53125 215.03125 312.347656 202.285156 L 301.394531 202.285156 C 298.980469 202.285156 297.023438 200.328125 297.023438 197.910156 C 297.023438 195.496094 298.980469 193.539062 301.394531 193.539062 L 312.496094 193.539062 C 312.113281 180.589844 309.0625 168.332031 303.890625 157.328125 L 293.332031 163.429688 C 291.242188 164.636719 288.570312 163.917969 287.363281 161.828125 C 286.15625 159.734375 286.871094 157.058594 288.964844 155.851562 L 299.789062 149.597656 C 293.199219 138.511719 284.332031 129.019531 273.863281 121.804688 L 266.9375 133.808594 C 265.730469 135.902344 263.058594 136.621094 260.96875 135.410156 C 258.875 134.203125 258.160156 131.527344 259.367188 129.4375 L 266.421875 117.210938 C 255.265625 111.089844 242.664062 107.398438 229.28125 106.820312 L 229.28125 121.367188 C 229.28125 123.785156 227.324219 125.742188 224.910156 125.742188 C 222.496094 125.742188 220.539062 123.785156 220.539062 121.367188 L 220.539062 106.886719 C 207.25 107.671875 194.761719 111.527344 183.730469 117.78125 L 190.453125 129.4375 C 191.660156 131.527344 190.945312 134.203125 188.855469 135.410156 C 186.765625 136.621094 184.089844 135.902344 182.882812 133.808594 L 176.34375 122.476562 C 166.113281 129.730469 157.460938 139.1875 151.039062 150.175781 L 160.859375 155.851562 C 162.949219 157.058594 163.667969 159.734375 162.457031 161.828125 C 161.253906 163.917969 158.578125 164.636719 156.488281 163.429688 L 146.992188 157.941406 C 141.996094 168.785156 139.046875 180.828125 138.671875 193.539062 L 148.425781 193.539062 C 150.839844 193.539062 152.796875 195.496094 152.796875 197.910156 C 152.796875 200.328125 150.839844 202.285156 148.425781 202.285156 L 138.824219 202.285156 C 139.621094 214.796875 142.914062 226.605469 148.191406 237.1875 L 156.488281 232.394531 C 158.578125 231.1875 161.253906 231.902344 162.457031 233.996094 C 163.667969 236.085938 162.949219 238.761719 160.859375 239.96875 L 152.472656 244.816406 C 159.011719 255.257812 167.605469 264.210938 177.660156 271.066406 L 182.882812 262.011719 C 184.089844 259.921875 186.765625 259.203125 188.855469 260.410156 C 190.945312 261.617188 191.660156 264.292969 190.453125 266.386719 L 185.128906 275.621094 C 195.8125 281.414062 207.808594 284.988281 220.539062 285.738281 L 220.539062 274.453125 C 220.539062 272.039062 222.496094 270.082031 224.910156 270.082031 C 227.324219 270.082031 229.28125 272.039062 229.28125 274.453125 Z M 137.125 308.363281 C 147.269531 308.363281 155.496094 299.886719 155.496094 289.433594 C 155.496094 278.980469 147.269531 270.503906 137.125 270.503906 C 126.976562 270.503906 118.746094 278.980469 118.746094 289.433594 C 118.746094 299.886719 126.976562 308.363281 137.125 308.363281 Z M 113.980469 78.007812 C 111.507812 78.007812 109.503906 80.011719 109.503906 82.488281 C 109.503906 84.960938 111.507812 86.964844 113.980469 86.964844 L 157.203125 86.964844 C 159.671875 86.964844 161.675781 84.960938 161.675781 82.488281 C 161.675781 80.011719 159.671875 78.007812 157.203125 78.007812 Z M 214.292969 189.8125 L 195.636719 119.539062 C 195.222656 117.980469 196.113281 116.371094 197.65625 115.902344 L 201.71875 114.65625 C 203.261719 114.1875 204.898438 115.019531 205.425781 116.542969 L 231.035156 190.476562 L 275.335938 192.230469 C 276.945312 192.296875 278.214844 193.617188 278.214844 195.230469 L 278.214844 201.585938 C 278.214844 203.195312 276.945312 204.519531 275.335938 204.582031 L 236.453125 206.125 C 236.902344 207.652344 236.078125 209.277344 234.558594 209.804688 C 234.523438 209.816406 234.488281 209.828125 234.453125 209.835938 L 223.699219 213.128906 C 222.117188 213.613281 220.441406 212.71875 219.957031 211.136719 C 219.945312 211.101562 219.933594 211.066406 219.925781 211.03125 L 218.808594 206.824219 L 213.589844 207.03125 C 211.933594 207.097656 210.539062 205.808594 210.476562 204.152344 C 210.472656 204.113281 210.472656 204.074219 210.472656 204.035156 L 210.472656 192.78125 C 210.472656 191.125 211.816406 189.78125 213.46875 189.78125 C 213.511719 189.78125 213.550781 189.78125 213.589844 189.78125 Z M 225.789062 202.085938 C 227.601562 202.085938 229.070312 200.617188 229.070312 198.808594 C 229.070312 196.996094 227.601562 195.527344 225.789062 195.527344 C 223.980469 195.527344 222.515625 196.996094 222.515625 198.808594 C 222.515625 200.617188 223.980469 202.085938 225.789062 202.085938 Z M 225.789062 202.085938"/></g></svg>